<svg xmlns="http://www.w3.org/2000/svg" width="375" height="812" viewBox="0 0 375 812">
  <!-- Owner Dashboard -->
  <rect width="375" height="812" fill="#F7F9F7"/>
  <rect width="375" height="44" fill="#FFFFFF"/>
  <text x="20" y="28" font-family="Inter, sans-serif" font-size="13" font-weight="600" fill="#1A202C">9:41</text>
  <circle cx="350" cy="22" r="5" fill="#6BCB77"/>

  <!-- Header -->
  <rect x="0" y="44" width="375" height="72" fill="#FFFFFF"/>
  <text x="24" y="76" font-family="Inter, sans-serif" font-size="20" font-weight="700" fill="#1A202C">Dashboard</text>
  <text x="24" y="100" font-family="Inter, sans-serif" font-size="14" fill="#718096">Saturday, April 12, 2026</text>

  <!-- Discrepancy banner -->
  <rect x="24" y="132" width="327" height="52" rx="10" fill="#FFF5F5" stroke="#E53E3E" stroke-width="1.5"/>
  <rect x="24" y="132" width="4" height="52" rx="2" fill="#E53E3E"/>
  <text x="40" y="152" font-family="Inter, sans-serif" font-size="13" font-weight="700" fill="#C53030">⚠ Cash Discrepancy — AM Shift</text>
  <text x="40" y="172" font-family="Inter, sans-serif" font-size="12" fill="#742A2A">Short by NPR 400 · Tap to review</text>

  <!-- Revenue cards -->
  <rect x="24" y="200" width="153" height="92" rx="12" fill="#FFFFFF" stroke="#E2E8F0" stroke-width="1.5"/>
  <text x="40" y="224" font-family="Inter, sans-serif" font-size="12" fill="#718096">Cash Sales</text>
  <text x="40" y="254" font-family="Inter, sans-serif" font-size="22" font-weight="700" fill="#1A202C">₨8,200</text>
  <text x="40" y="278" font-family="Inter, sans-serif" font-size="11" fill="#718096">Today</text>

  <rect x="197" y="200" width="154" height="92" rx="12" fill="#FFFFFF" stroke="#E2E8F0" stroke-width="1.5"/>
  <text x="213" y="224" font-family="Inter, sans-serif" font-size="12" fill="#718096">Digital Sales</text>
  <text x="213" y="254" font-family="Inter, sans-serif" font-size="22" font-weight="700" fill="#1A202C">₨4,800</text>
  <text x="213" y="278" font-family="Inter, sans-serif" font-size="11" fill="#718096">Today</text>

  <!-- Total revenue -->
  <rect x="24" y="304" width="327" height="72" rx="12" fill="#2D6A4F"/>
  <text x="40" y="330" font-family="Inter, sans-serif" font-size="14" fill="#FFFFFF" opacity="0.8">Total Revenue Today</text>
  <text x="40" y="362" font-family="Inter, sans-serif" font-size="28" font-weight="700" fill="#FFFFFF">NPR 13,000</text>

  <!-- Shift status -->
  <text x="24" y="406" font-family="Inter, sans-serif" font-size="16" font-weight="700" fill="#1A202C">Shift Status</text>

  <rect x="24" y="420" width="153" height="72" rx="12" fill="#FFFFFF" stroke="#E2E8F0" stroke-width="1.5"/>
  <text x="40" y="444" font-family="Inter, sans-serif" font-size="12" fill="#718096">AM Shift</text>
  <rect x="40" y="452" width="86" height="24" rx="12" fill="#FED7D7"/>
  <text x="83" y="468" font-family="Inter, sans-serif" font-size="11" font-weight="600" fill="#C53030" text-anchor="middle">⚠ Discrepancy</text>

  <rect x="197" y="420" width="154" height="72" rx="12" fill="#FFFFFF" stroke="#E2E8F0" stroke-width="1.5"/>
  <text x="213" y="444" font-family="Inter, sans-serif" font-size="12" fill="#718096">PM Shift</text>
  <rect x="213" y="452" width="80" height="24" rx="12" fill="#FEEBC8"/>
  <text x="253" y="468" font-family="Inter, sans-serif" font-size="11" font-weight="600" fill="#C05621" text-anchor="middle">In Progress</text>

  <!-- Quick actions -->
  <text x="24" y="520" font-family="Inter, sans-serif" font-size="16" font-weight="700" fill="#1A202C">Quick Actions</text>

  <rect x="24" y="536" width="148" height="60" rx="10" fill="#FFFFFF" stroke="#E2E8F0" stroke-width="1.5"/>
  <text x="98" y="570" font-family="Inter, sans-serif" font-size="13" font-weight="600" fill="#1A202C" text-anchor="middle">📊 Enter POS</text>

  <rect x="184" y="536" width="75" height="60" rx="10" fill="#FFFFFF" stroke="#E2E8F0" stroke-width="1.5"/>
  <text x="222" y="570" font-family="Inter, sans-serif" font-size="13" font-weight="600" fill="#1A202C" text-anchor="middle">👥 HR</text>

  <rect x="271" y="536" width="80" height="60" rx="10" fill="#FFFFFF" stroke="#E2E8F0" stroke-width="1.5"/>
  <text x="311" y="570" font-family="Inter, sans-serif" font-size="13" font-weight="600" fill="#1A202C" text-anchor="middle">🏢 Corp</text>

  <!-- Bottom nav owner -->
  <rect x="0" y="748" width="375" height="64" fill="#FFFFFF" stroke="#E2E8F0" stroke-width="1"/>
  <rect x="18" y="748" width="52" height="3" rx="2" fill="#6BCB77"/>
  <text x="44" y="800" font-family="Inter, sans-serif" font-size="10" font-weight="600" fill="#6BCB77" text-anchor="middle">Dashboard</text>
  <text x="135" y="800" font-family="Inter, sans-serif" font-size="10" fill="#718096" text-anchor="middle">Shifts</text>
  <text x="235" y="800" font-family="Inter, sans-serif" font-size="10" fill="#718096" text-anchor="middle">Finance</text>
  <text x="329" y="800" font-family="Inter, sans-serif" font-size="10" fill="#718096" text-anchor="middle">More</text>
</svg>
