<svg xmlns="http://www.w3.org/2000/svg" width="375" height="812" viewBox="0 0 375 812">
  <!-- Shift Form: Step 1 — Opening Checklist -->
  <rect width="375" height="812" fill="#FFFFFF"/>
  <text x="20" y="28" font-family="Inter, sans-serif" font-size="13" font-weight="600" fill="#1A202C">9:41</text>

  <!-- Header -->
  <polyline points="36,60 24,68 36,76" fill="none" stroke="#1A202C" stroke-width="2.5" stroke-linecap="round"/>
  <text x="188" y="72" font-family="Inter, sans-serif" font-size="17" font-weight="700" fill="#1A202C" text-anchor="middle">Opening Checklist</text>

  <!-- Progress -->
  <text x="24" y="104" font-family="Inter, sans-serif" font-size="13" fill="#718096">Step 1 of 7</text>
  <text x="351" y="104" font-family="Inter, sans-serif" font-size="13" font-weight="600" fill="#2D6A4F" text-anchor="end">Opening</text>
  <rect x="24" y="112" width="327" height="6" rx="3" fill="#E2E8F0"/>
  <rect x="24" y="112" width="47" height="6" rx="3" fill="#6BCB77"/>

  <!-- Checklist items -->
  <!-- Checked items -->
  <rect x="24" y="132" width="327" height="48" rx="8" fill="#F0FBF1"/>
  <rect x="40" y="148" width="20" height="20" rx="5" fill="#6BCB77"/>
  <polyline points="44,158 48,163 56,154" fill="none" stroke="#FFFFFF" stroke-width="2.5" stroke-linecap="round" stroke-linejoin="round"/>
  <text x="72" y="162" font-family="Inter, sans-serif" font-size="14" fill="#4A5568">Turn on espresso machine</text>

  <rect x="24" y="188" width="327" height="48" rx="8" fill="#F0FBF1"/>
  <rect x="40" y="204" width="20" height="20" rx="5" fill="#6BCB77"/>
  <polyline points="44,214 48,219 56,210" fill="none" stroke="#FFFFFF" stroke-width="2.5" stroke-linecap="round" stroke-linejoin="round"/>
  <text x="72" y="218" font-family="Inter, sans-serif" font-size="14" fill="#4A5568">Flush group heads x3</text>

  <rect x="24" y="244" width="327" height="48" rx="8" fill="#F0FBF1"/>
  <rect x="40" y="260" width="20" height="20" rx="5" fill="#6BCB77"/>
  <polyline points="44,270 48,275 56,266" fill="none" stroke="#FFFFFF" stroke-width="2.5" stroke-linecap="round" stroke-linejoin="round"/>
  <text x="72" y="274" font-family="Inter, sans-serif" font-size="14" fill="#4A5568">Check milk stock in fridge</text>

  <!-- Unchecked items -->
  <rect x="24" y="300" width="327" height="48" rx="8" fill="#F7F9F7"/>
  <rect x="40" y="316" width="20" height="20" rx="5" fill="#FFFFFF" stroke="#E2E8F0" stroke-width="2"/>
  <text x="72" y="330" font-family="Inter, sans-serif" font-size="14" fill="#1A202C">Wipe steam wand</text>

  <rect x="24" y="356" width="327" height="48" rx="8" fill="#F7F9F7"/>
  <rect x="40" y="372" width="20" height="20" rx="5" fill="#FFFFFF" stroke="#E2E8F0" stroke-width="2"/>
  <text x="72" y="386" font-family="Inter, sans-serif" font-size="14" fill="#1A202C">Calibrate grinder</text>

  <rect x="24" y="412" width="327" height="48" rx="8" fill="#F7F9F7"/>
  <rect x="40" y="428" width="20" height="20" rx="5" fill="#FFFFFF" stroke="#E2E8F0" stroke-width="2"/>
  <text x="72" y="442" font-family="Inter, sans-serif" font-size="14" fill="#1A202C">Stock cups at counter</text>

  <rect x="24" y="468" width="327" height="48" rx="8" fill="#F7F9F7"/>
  <rect x="40" y="484" width="20" height="20" rx="5" fill="#FFFFFF" stroke="#E2E8F0" stroke-width="2"/>
  <text x="72" y="498" font-family="Inter, sans-serif" font-size="14" fill="#1A202C">Prepare pastry display</text>

  <text x="188" y="540" font-family="Inter, sans-serif" font-size="13" fill="#718096" text-anchor="middle">3 of 20 completed</text>

  <!-- Photo upload -->
  <rect x="24" y="556" width="327" height="100" rx="12" fill="#F7F9F7" stroke="#E2E8F0" stroke-width="2" stroke-dasharray="6 4"/>
  <text x="188" y="600" font-family="Inter, sans-serif" font-size="14" font-weight="600" fill="#2D6A4F" text-anchor="middle">📷  Tap to upload opening photo</text>
  <text x="188" y="626" font-family="Inter, sans-serif" font-size="12" fill="#718096" text-anchor="middle">Station must be clearly visible</text>

  <!-- Next step button -->
  <rect x="24" y="672" width="327" height="56" rx="14" fill="#6BCB77"/>
  <text x="188" y="705" font-family="Inter, sans-serif" font-size="17" font-weight="600" fill="#FFFFFF" text-anchor="middle">Next: Espresso Dial-in →</text>

  <!-- Bottom nav -->
  <rect x="0" y="748" width="375" height="64" fill="#FFFFFF" stroke="#E2E8F0" stroke-width="1"/>
</svg>
